<svg width="760" height="560" viewBox="0 0 760 560" fill="none" xmlns="http://www.w3.org/2000/svg" role="img" aria-labelledby="title desc">
  <title id="title">Painel de portfólio</title>
  <desc id="desc">Composição abstrata com cartões de interface, linhas de código e indicadores visuais.</desc>
  <defs>
    <linearGradient id="panel" x1="120" y1="64" x2="650" y2="506" gradientUnits="userSpaceOnUse">
      <stop stop-color="#2A2B24"/>
      <stop offset="0.56" stop-color="#11120F"/>
      <stop offset="1" stop-color="#050605"/>
    </linearGradient>
    <linearGradient id="amber" x1="135" y1="130" x2="620" y2="464" gradientUnits="userSpaceOnUse">
      <stop stop-color="#FFC15D"/>
      <stop offset="1" stop-color="#FF8A00"/>
    </linearGradient>
    <filter id="shadow" x="59" y="35" width="642" height="488" filterUnits="userSpaceOnUse" color-interpolation-filters="sRGB">
      <feDropShadow dx="0" dy="28" stdDeviation="30" flood-color="#000000" flood-opacity="0.45"/>
    </filter>
  </defs>

  <path d="M103 395C84 314 89 226 144 157C211 73 332 49 441 61C549 73 650 123 681 217C712 312 673 452 577 500C482 548 329 504 239 474C160 448 118 458 103 395Z" fill="#FF9F1C" opacity="0.16"/>
  <path d="M133 145L641 90C661 88 678 102 681 122L715 438C717 458 703 475 683 477L175 532C155 534 138 520 135 500L101 184C99 164 113 147 133 145Z" stroke="#FF9F1C" stroke-opacity="0.28" stroke-width="2"/>

  <g filter="url(#shadow)">
    <rect x="92" y="78" width="576" height="404" rx="8" fill="url(#panel)" stroke="white" stroke-opacity="0.12"/>
    <rect x="92" y="78" width="576" height="54" rx="8" fill="#151713"/>
    <circle cx="125" cy="105" r="7" fill="#FF9F1C"/>
    <circle cx="149" cy="105" r="7" fill="#60D394"/>
    <circle cx="173" cy="105" r="7" fill="#7AA2FF"/>
    <rect x="212" y="96" width="245" height="16" rx="8" fill="white" fill-opacity="0.11"/>

    <rect x="126" y="166" width="210" height="132" rx="8" fill="#20231F" stroke="white" stroke-opacity="0.11"/>
    <rect x="151" y="193" width="83" height="12" rx="6" fill="#FF9F1C"/>
    <rect x="151" y="224" width="150" height="10" rx="5" fill="white" fill-opacity="0.16"/>
    <rect x="151" y="249" width="122" height="10" rx="5" fill="white" fill-opacity="0.11"/>
    <rect x="151" y="271" width="74" height="10" rx="5" fill="#60D394" fill-opacity="0.68"/>

    <rect x="366" y="166" width="168" height="132" rx="8" fill="#171914" stroke="white" stroke-opacity="0.11"/>
    <path d="M394 258L421 224L447 240L477 198L509 217" stroke="#FF9F1C" stroke-width="8" stroke-linecap="round" stroke-linejoin="round"/>
    <circle cx="477" cy="198" r="8" fill="#60D394"/>

    <rect x="558" y="166" width="72" height="132" rx="8" fill="#20231F" stroke="white" stroke-opacity="0.1"/>
    <rect x="579" y="260" width="10" height="22" rx="5" fill="#60D394"/>
    <rect x="598" y="226" width="10" height="56" rx="5" fill="#FF9F1C"/>
    <rect x="617" y="197" width="10" height="85" rx="5" fill="#7AA2FF"/>

    <rect x="126" y="328" width="132" height="100" rx="8" fill="#171914" stroke="white" stroke-opacity="0.1"/>
    <rect x="151" y="352" width="54" height="10" rx="5" fill="#FF9F1C"/>
    <rect x="151" y="378" width="82" height="10" rx="5" fill="white" fill-opacity="0.12"/>
    <rect x="151" y="400" width="62" height="10" rx="5" fill="white" fill-opacity="0.12"/>

    <rect x="282" y="328" width="132" height="100" rx="8" fill="#171914" stroke="white" stroke-opacity="0.1"/>
    <rect x="307" y="352" width="42" height="10" rx="5" fill="#60D394"/>
    <rect x="307" y="378" width="78" height="10" rx="5" fill="white" fill-opacity="0.12"/>
    <rect x="307" y="400" width="58" height="10" rx="5" fill="white" fill-opacity="0.12"/>

    <rect x="438" y="328" width="192" height="100" rx="8" fill="#171914" stroke="white" stroke-opacity="0.1"/>
    <rect x="463" y="352" width="74" height="10" rx="5" fill="#7AA2FF"/>
    <rect x="463" y="378" width="124" height="10" rx="5" fill="white" fill-opacity="0.12"/>
    <rect x="463" y="400" width="92" height="10" rx="5" fill="white" fill-opacity="0.12"/>

    <path d="M122 456H633" stroke="white" stroke-opacity="0.08"/>
  </g>

  <path d="M53 300H108" stroke="#60D394" stroke-width="4" stroke-linecap="round"/>
  <path d="M45 322H136" stroke="#FF9F1C" stroke-width="4" stroke-linecap="round"/>
  <path d="M643 57H715" stroke="#7AA2FF" stroke-width="4" stroke-linecap="round"/>
  <path d="M621 36H702" stroke="#FF9F1C" stroke-width="4" stroke-linecap="round"/>
</svg>
