<svg width="720" height="460" viewBox="0 0 720 460" fill="none" xmlns="http://www.w3.org/2000/svg">
  <rect width="720" height="460" rx="8" fill="#050605"/>
  <radialGradient id="g" cx="0" cy="0" r="1" gradientUnits="userSpaceOnUse" gradientTransform="translate(540 92) rotate(128) scale(298 256)">
    <stop stop-color="#FF9F1C" stop-opacity="0.32"/>
    <stop offset="1" stop-color="#FF9F1C" stop-opacity="0"/>
  </radialGradient>
  <rect width="720" height="460" rx="8" fill="url(#g)"/>
  <rect x="58" y="72" width="604" height="316" rx="8" fill="#141713" stroke="rgba(255,255,255,0.14)"/>
  <rect x="94" y="112" width="94" height="12" rx="6" fill="#FF9F1C"/>
  <rect x="94" y="150" width="250" height="28" rx="6" fill="#F7F3EA"/>
  <rect x="94" y="194" width="296" height="12" rx="6" fill="#BBB2A2"/>
  <rect x="94" y="218" width="236" height="12" rx="6" fill="#BBB2A2"/>
  <rect x="94" y="282" width="132" height="76" rx="8" fill="#1E211D" stroke="rgba(255,255,255,0.1)"/>
  <rect x="244" y="282" width="132" height="76" rx="8" fill="#1E211D" stroke="rgba(255,255,255,0.1)"/>
  <rect x="394" y="282" width="132" height="76" rx="8" fill="#1E211D" stroke="rgba(255,255,255,0.1)"/>
  <rect x="464" y="118" width="134" height="128" rx="8" fill="#0B0C0B" stroke="rgba(255,255,255,0.12)"/>
  <path d="M490 205l30-34 28 20 30-48" stroke="#FF9F1C" stroke-width="9" stroke-linecap="round" stroke-linejoin="round"/>
  <circle cx="578" cy="143" r="9" fill="#60D394"/>
  <rect x="112" y="314" width="56" height="9" rx="4.5" fill="#FF9F1C"/>
  <rect x="262" y="314" width="56" height="9" rx="4.5" fill="#60D394"/>
  <rect x="412" y="314" width="56" height="9" rx="4.5" fill="#7AA2FF"/>
</svg>
