<svg width="720" height="460" viewBox="0 0 720 460" fill="none" xmlns="http://www.w3.org/2000/svg">
  <rect width="720" height="460" rx="8" fill="#0A0B0A"/>
  <rect x="34" y="34" width="652" height="392" rx="8" fill="#171A16" stroke="rgba(255,255,255,0.12)"/>
  <circle cx="74" cy="72" r="7" fill="#FF9F1C"/>
  <circle cx="96" cy="72" r="7" fill="#60D394"/>
  <circle cx="118" cy="72" r="7" fill="#7AA2FF"/>
  <rect x="152" y="64" width="190" height="14" rx="7" fill="#33362F"/>
  <rect x="78" y="118" width="238" height="250" rx="28" fill="#080908" stroke="rgba(255,255,255,0.16)"/>
  <rect x="96" y="142" width="202" height="42" rx="12" fill="#171A16"/>
  <rect x="116" y="156" width="76" height="10" rx="5" fill="#FF9F1C"/>
  <rect x="96" y="206" width="202" height="112" rx="18" fill="#10130F"/>
  <circle cx="153" cy="262" r="34" fill="#60D394" fill-opacity="0.18"/>
  <path d="M133 260c12-26 46-26 58 0m-44 18h30m-38-22 8-15m36 15-8-15" stroke="#60D394" stroke-width="8" stroke-linecap="round"/>
  <rect x="112" y="338" width="170" height="10" rx="5" fill="#33362F"/>
  <rect x="112" y="356" width="124" height="10" rx="5" fill="#FF9F1C"/>
  <text x="368" y="156" fill="#F7F3EA" font-family="Arial, sans-serif" font-size="46" font-weight="800">OvinoSync</text>
  <text x="370" y="196" fill="#BBB2A2" font-family="Arial, sans-serif" font-size="23" font-weight="600">Manejo, registros e consulta</text>
  <rect x="370" y="240" width="116" height="20" rx="10" fill="#FF9F1C"/>
  <rect x="370" y="278" width="228" height="14" rx="7" fill="#343830"/>
  <rect x="370" y="308" width="188" height="14" rx="7" fill="#343830"/>
  <rect x="370" y="338" width="256" height="14" rx="7" fill="#60D394" fill-opacity="0.64"/>
</svg>
